<svg width="516" height="512" viewBox="0 0 516 512" fill="none" xmlns="http://www.w3.org/2000/svg">
<path d="M0 0H516V92H0V0Z" fill="#BCBDDF"/>
<path fill-rule="evenodd" clip-rule="evenodd" d="M516 164H0V512H516V164ZM36.4432 304.091V311.278H57.483V371H65.5852V311.278H86.625V304.091H36.4432ZM105.794 371V340.812C105.794 337.894 106.361 335.411 107.493 333.364C108.648 331.316 110.216 329.759 112.198 328.692C114.202 327.625 116.467 327.091 118.993 327.091C122.631 327.091 125.473 328.191 127.52 330.391C129.589 332.569 130.624 335.651 130.624 339.636V371H138.334V339.114C138.334 334.801 137.615 331.251 136.178 328.463C134.762 325.653 132.769 323.573 130.199 322.223C127.629 320.851 124.634 320.165 121.215 320.165C117.273 320.165 114.114 320.938 111.74 322.484C109.388 324.009 107.624 326.067 106.448 328.659H105.794V304.091H98.0842V371H105.794ZM160.967 368.844C164.473 370.978 168.644 372.045 173.479 372.045C176.877 372.045 179.937 371.523 182.66 370.477C185.382 369.41 187.669 367.929 189.521 366.034C191.372 364.117 192.69 361.896 193.474 359.369L186.025 357.278C185.371 359.021 184.446 360.48 183.248 361.656C182.05 362.811 180.623 363.682 178.968 364.27C177.335 364.836 175.505 365.119 173.479 365.119C170.365 365.119 167.631 364.444 165.279 363.094C162.927 361.722 161.086 359.729 159.758 357.115C158.573 354.725 157.925 351.861 157.815 348.523H194.258V345.256C194.258 340.573 193.637 336.631 192.396 333.429C191.154 330.227 189.488 327.657 187.397 325.719C185.306 323.759 182.987 322.343 180.438 321.472C177.89 320.6 175.309 320.165 172.695 320.165C168.165 320.165 164.201 321.276 160.803 323.497C157.427 325.697 154.792 328.768 152.897 332.71C151.024 336.631 150.087 341.161 150.087 346.301C150.087 351.441 151.024 355.95 152.897 359.827C154.792 363.682 157.482 366.688 160.967 368.844ZM157.834 341.858C157.981 339.53 158.568 337.33 159.594 335.259C160.792 332.841 162.502 330.881 164.724 329.378C166.967 327.853 169.624 327.091 172.695 327.091C175.483 327.091 177.901 327.733 179.948 329.018C182.017 330.303 183.607 332.057 184.718 334.278C185.851 336.5 186.417 339.027 186.417 341.858H157.834ZM249.928 319.087C251.104 320.829 252.052 322.8 252.771 325H261.134C260.524 321.755 259.414 318.803 257.802 316.146C256.19 313.467 254.175 311.17 251.758 309.253C249.362 307.314 246.629 305.822 243.558 304.777C240.508 303.71 237.219 303.176 233.691 303.176C229.4 303.176 225.469 303.971 221.897 305.561C218.325 307.151 215.232 309.438 212.619 312.422C210.005 315.406 207.979 319.021 206.542 323.268C205.126 327.494 204.418 332.253 204.418 337.545C204.418 344.602 205.66 350.701 208.143 355.841C210.647 360.981 214.132 364.945 218.597 367.733C223.084 370.521 228.29 371.915 234.214 371.915C239.528 371.915 244.233 370.804 248.327 368.582C252.444 366.339 255.667 363.181 257.998 359.108C260.35 355.035 261.526 350.243 261.526 344.733V337.545H236.043V344.733H253.681C253.613 348.609 252.787 351.996 251.202 354.893C249.569 357.899 247.282 360.23 244.342 361.885C241.423 363.518 238.047 364.335 234.214 364.335C230.076 364.335 226.351 363.312 223.04 361.264C219.73 359.217 217.105 356.2 215.167 352.214C213.228 348.229 212.259 343.339 212.259 337.545C212.259 331.752 213.218 326.862 215.134 322.876C217.051 318.891 219.632 315.874 222.877 313.827C226.122 311.779 229.727 310.756 233.691 310.756C236.109 310.756 238.33 311.082 240.356 311.736C242.381 312.389 244.189 313.337 245.779 314.578C247.391 315.82 248.774 317.322 249.928 319.087ZM282.819 368.811C286.239 370.967 290.214 372.045 294.744 372.045C299.274 372.045 303.238 370.967 306.636 368.811C310.056 366.655 312.713 363.638 314.608 359.761C316.524 355.884 317.483 351.354 317.483 346.17C317.483 340.943 316.524 336.38 314.608 332.482C312.713 328.583 310.056 325.555 306.636 323.399C303.238 321.243 299.274 320.165 294.744 320.165C290.214 320.165 286.239 321.243 282.819 323.399C279.422 325.555 276.764 328.583 274.848 332.482C272.953 336.38 272.005 340.943 272.005 346.17C272.005 351.354 272.953 355.884 274.848 359.761C276.764 363.638 279.422 366.655 282.819 368.811ZM303.238 362.473C301.017 364.237 298.185 365.119 294.744 365.119C291.303 365.119 288.471 364.237 286.25 362.473C284.028 360.709 282.384 358.389 281.316 355.514C280.249 352.639 279.716 349.525 279.716 346.17C279.716 342.816 280.249 339.691 281.316 336.794C282.384 333.897 284.028 331.556 286.25 329.77C288.471 327.984 291.303 327.091 294.744 327.091C298.185 327.091 301.017 327.984 303.238 329.77C305.46 331.556 307.104 333.897 308.172 336.794C309.239 339.691 309.772 342.816 309.772 346.17C309.772 349.525 309.239 352.639 308.172 355.514C307.104 358.389 305.46 360.709 303.238 362.473ZM337.714 368.811C341.133 370.967 345.108 372.045 349.638 372.045C354.169 372.045 358.133 370.967 361.531 368.811C364.95 366.655 367.607 363.638 369.502 359.761C371.419 355.884 372.377 351.354 372.377 346.17C372.377 340.943 371.419 336.38 369.502 332.482C367.607 328.583 364.95 325.555 361.531 323.399C358.133 321.243 354.169 320.165 349.638 320.165C345.108 320.165 341.133 321.243 337.714 323.399C334.316 325.555 331.659 328.583 329.742 332.482C327.847 336.38 326.9 340.943 326.9 346.17C326.9 351.354 327.847 355.884 329.742 359.761C331.659 363.638 334.316 366.655 337.714 368.811ZM358.133 362.473C355.911 364.237 353.08 365.119 349.638 365.119C346.197 365.119 343.366 364.237 341.144 362.473C338.923 360.709 337.278 358.389 336.211 355.514C335.144 352.639 334.61 349.525 334.61 346.17C334.61 342.816 335.144 339.691 336.211 336.794C337.278 333.897 338.923 331.556 341.144 329.77C343.366 327.984 346.197 327.091 349.638 327.091C353.08 327.091 355.911 327.984 358.133 329.77C360.354 331.556 361.999 333.897 363.066 336.794C364.133 339.691 364.667 342.816 364.667 346.17C364.667 349.525 364.133 352.639 363.066 355.514C361.999 358.389 360.354 360.709 358.133 362.473ZM392.02 368.876C395.222 370.989 398.914 372.045 403.096 372.045C406.319 372.045 408.9 371.512 410.838 370.445C412.777 369.356 414.269 368.125 415.314 366.753C416.36 365.359 417.166 364.205 417.732 363.29H418.647V371H426.096V304.091H418.385V328.79H417.732C417.166 327.919 416.371 326.808 415.347 325.457C414.345 324.085 412.886 322.866 410.969 321.798C409.074 320.709 406.493 320.165 403.226 320.165C399.001 320.165 395.276 321.221 392.053 323.334C388.829 325.447 386.314 328.441 384.506 332.318C382.698 336.195 381.794 340.769 381.794 346.04C381.794 351.354 382.698 355.961 384.506 359.859C386.314 363.736 388.819 366.742 392.02 368.876ZM411.982 362.702C409.847 364.313 407.234 365.119 404.141 365.119C400.918 365.119 398.217 364.27 396.039 362.571C393.882 360.85 392.249 358.542 391.138 355.645C390.049 352.726 389.505 349.481 389.505 345.909C389.505 342.381 390.038 339.201 391.105 336.369C392.194 333.516 393.817 331.262 395.973 329.607C398.151 327.929 400.874 327.091 404.141 327.091C407.277 327.091 409.913 327.886 412.047 329.476C414.182 331.044 415.793 333.244 416.882 336.075C417.971 338.885 418.516 342.163 418.516 345.909C418.516 349.699 417.961 353.042 416.85 355.939C415.739 358.814 414.116 361.068 411.982 362.702ZM469.907 334.017L476.833 332.057C475.635 328.485 473.609 325.61 470.756 323.432C467.925 321.254 464.026 320.165 459.06 320.165C455.532 320.165 452.373 320.786 449.586 322.027C446.819 323.268 444.631 324.978 443.019 327.156C441.429 329.334 440.634 331.839 440.634 334.67C440.634 338.134 441.701 341.019 443.836 343.328C445.992 345.615 449.368 347.303 453.963 348.392L462.327 350.352C464.854 350.94 466.727 351.833 467.946 353.031C469.166 354.207 469.776 355.667 469.776 357.409C469.776 359.565 468.709 361.417 466.574 362.963C464.462 364.488 461.608 365.25 458.015 365.25C454.856 365.25 452.297 364.575 450.337 363.224C448.399 361.874 447.081 359.848 446.384 357.148L439.066 358.977C439.959 363.246 442.082 366.491 445.436 368.713C448.791 370.935 453.027 372.045 458.145 372.045C462.044 372.045 465.463 371.392 468.404 370.085C471.344 368.778 473.631 366.992 475.265 364.727C476.92 362.462 477.748 359.892 477.748 357.017C477.748 353.51 476.648 350.646 474.448 348.425C472.248 346.181 468.905 344.515 464.418 343.426L456.969 341.597C454.007 340.856 451.829 339.93 450.435 338.82C449.041 337.709 448.344 336.195 448.344 334.278C448.344 332.122 449.357 330.347 451.382 328.953C453.43 327.537 455.989 326.83 459.06 326.83C461.303 326.83 463.144 327.189 464.581 327.908C466.019 328.626 467.151 329.541 467.979 330.652C468.828 331.741 469.471 332.863 469.907 334.017Z" fill="#BCBDDF"/>
</svg>
